<mxfile host="Electron" modified="2023-05-03T09:09:07.809Z" agent="Mozilla/5.0 (X11; Linux x86_64) AppleWebKit/537.36 (KHTML, like Gecko) draw.io/21.2.1 Chrome/112.0.5615.87 Electron/24.1.2 Safari/537.36" etag="qMPrxLV2_gKhoxfleDof" version="21.2.1" type="device">
  <diagram name="第 1 页" id="iAU3yH5nO_GJqzfUaLiA">
    <mxGraphModel dx="1115" dy="753" grid="1" gridSize="10" guides="1" tooltips="1" connect="1" arrows="1" fold="1" page="1" pageScale="1" pageWidth="827" pageHeight="1169" math="0" shadow="0">
      <root>
        <mxCell id="0" />
        <mxCell id="1" parent="0" />
        <mxCell id="iztKYh4bMdh9Oh8WnDP4-22" style="edgeStyle=orthogonalEdgeStyle;rounded=0;orthogonalLoop=1;jettySize=auto;html=1;exitX=0.5;exitY=1;exitDx=0;exitDy=0;entryX=0.5;entryY=1;entryDx=0;entryDy=0;dashed=1;" parent="1" source="iztKYh4bMdh9Oh8WnDP4-5" target="iztKYh4bMdh9Oh8WnDP4-18" edge="1">
          <mxGeometry relative="1" as="geometry">
            <Array as="points">
              <mxPoint x="162.5" y="262" />
              <mxPoint x="414.5" y="262" />
            </Array>
          </mxGeometry>
        </mxCell>
        <mxCell id="iztKYh4bMdh9Oh8WnDP4-5" value="1" style="rounded=0;whiteSpace=wrap;html=1;shadow=0;container=0;" parent="1" vertex="1">
          <mxGeometry x="133.5" y="155.48387096774195" width="57.37078651685392" height="69.19354838709678" as="geometry" />
        </mxCell>
        <mxCell id="iztKYh4bMdh9Oh8WnDP4-6" value="2" style="rounded=0;whiteSpace=wrap;html=1;shadow=0;container=0;" parent="1" vertex="1">
          <mxGeometry x="190.87078651685394" y="155.48387096774195" width="57.37078651685392" height="69.19354838709678" as="geometry" />
        </mxCell>
        <mxCell id="iztKYh4bMdh9Oh8WnDP4-24" style="edgeStyle=orthogonalEdgeStyle;rounded=0;orthogonalLoop=1;jettySize=auto;html=1;exitX=0.5;exitY=1;exitDx=0;exitDy=0;entryX=0.5;entryY=1;entryDx=0;entryDy=0;dashed=1;" parent="1" source="iztKYh4bMdh9Oh8WnDP4-6" target="iztKYh4bMdh9Oh8WnDP4-19" edge="1">
          <mxGeometry relative="1" as="geometry">
            <Array as="points">
              <mxPoint x="313.09550561797755" y="293.8709677419355" />
              <mxPoint x="482.7134831460674" y="293.8709677419355" />
            </Array>
          </mxGeometry>
        </mxCell>
        <mxCell id="iztKYh4bMdh9Oh8WnDP4-28" style="edgeStyle=orthogonalEdgeStyle;rounded=0;orthogonalLoop=1;jettySize=auto;html=1;exitX=0.5;exitY=0;exitDx=0;exitDy=0;entryX=0.25;entryY=0;entryDx=0;entryDy=0;" parent="1" source="iztKYh4bMdh9Oh8WnDP4-5" target="iztKYh4bMdh9Oh8WnDP4-6" edge="1">
          <mxGeometry relative="1" as="geometry">
            <Array as="points">
              <mxPoint x="162.18539325842698" y="120" />
              <mxPoint x="205.21348314606743" y="120" />
            </Array>
          </mxGeometry>
        </mxCell>
        <mxCell id="iztKYh4bMdh9Oh8WnDP4-15" value="3" style="rounded=0;whiteSpace=wrap;html=1;shadow=0;container=0;" parent="1" vertex="1">
          <mxGeometry x="248.24157303370788" y="155.48387096774195" width="57.37078651685392" height="69.19354838709678" as="geometry" />
        </mxCell>
        <mxCell id="iztKYh4bMdh9Oh8WnDP4-25" style="edgeStyle=orthogonalEdgeStyle;rounded=0;orthogonalLoop=1;jettySize=auto;html=1;exitX=0.25;exitY=1;exitDx=0;exitDy=0;entryX=0.5;entryY=1;entryDx=0;entryDy=0;dashed=1;" parent="1" source="iztKYh4bMdh9Oh8WnDP4-15" target="iztKYh4bMdh9Oh8WnDP4-20" edge="1">
          <mxGeometry relative="1" as="geometry">
            <Array as="points">
              <mxPoint x="329.0595505617978" y="316.93548387096774" />
              <mxPoint x="562.5337078651686" y="316.93548387096774" />
            </Array>
          </mxGeometry>
        </mxCell>
        <mxCell id="iztKYh4bMdh9Oh8WnDP4-31" style="edgeStyle=orthogonalEdgeStyle;rounded=0;orthogonalLoop=1;jettySize=auto;html=1;exitX=0.5;exitY=0;exitDx=0;exitDy=0;entryX=0.25;entryY=0;entryDx=0;entryDy=0;" parent="1" source="iztKYh4bMdh9Oh8WnDP4-6" target="iztKYh4bMdh9Oh8WnDP4-15" edge="1">
          <mxGeometry relative="1" as="geometry">
            <Array as="points">
              <mxPoint x="219.5561797752809" y="120" />
              <mxPoint x="262.5842696629214" y="120" />
            </Array>
          </mxGeometry>
        </mxCell>
        <mxCell id="iztKYh4bMdh9Oh8WnDP4-16" value="&lt;p style=&quot;line-height: 120%;&quot;&gt;&lt;font style=&quot;font-size: 8px;&quot;&gt;&lt;b&gt;BUFCTL_END&lt;/b&gt;&lt;/font&gt;&lt;/p&gt;" style="rounded=0;whiteSpace=wrap;html=1;shadow=0;container=0;" parent="1" vertex="1">
          <mxGeometry x="305.6123595505618" y="155.48387096774195" width="57.37078651685392" height="69.19354838709678" as="geometry" />
        </mxCell>
        <mxCell id="iztKYh4bMdh9Oh8WnDP4-32" style="edgeStyle=orthogonalEdgeStyle;rounded=0;orthogonalLoop=1;jettySize=auto;html=1;exitX=0.5;exitY=0;exitDx=0;exitDy=0;entryX=0.25;entryY=0;entryDx=0;entryDy=0;" parent="1" source="iztKYh4bMdh9Oh8WnDP4-15" target="iztKYh4bMdh9Oh8WnDP4-16" edge="1">
          <mxGeometry relative="1" as="geometry">
            <Array as="points">
              <mxPoint x="276.92696629213486" y="120" />
              <mxPoint x="319.9550561797753" y="120" />
            </Array>
          </mxGeometry>
        </mxCell>
        <mxCell id="iztKYh4bMdh9Oh8WnDP4-26" style="edgeStyle=orthogonalEdgeStyle;rounded=0;orthogonalLoop=1;jettySize=auto;html=1;exitX=0.5;exitY=1;exitDx=0;exitDy=0;entryX=0.5;entryY=1;entryDx=0;entryDy=0;dashed=1;" parent="1" source="iztKYh4bMdh9Oh8WnDP4-16" target="iztKYh4bMdh9Oh8WnDP4-21" edge="1">
          <mxGeometry relative="1" as="geometry">
            <Array as="points">
              <mxPoint x="353.0056179775281" y="340" />
              <mxPoint x="642.3539325842696" y="340" />
            </Array>
          </mxGeometry>
        </mxCell>
        <mxCell id="iztKYh4bMdh9Oh8WnDP4-18" value="obj" style="rounded=0;whiteSpace=wrap;html=1;shadow=0;movable=1;resizable=1;rotatable=1;deletable=1;editable=1;locked=0;connectable=1;container=0;" parent="1" vertex="1">
          <mxGeometry x="362.98" y="155.48000000000002" width="103.38" height="69.19000000000001" as="geometry" />
        </mxCell>
        <mxCell id="iztKYh4bMdh9Oh8WnDP4-19" value="obj" style="rounded=0;whiteSpace=wrap;html=1;shadow=0;movable=1;resizable=1;rotatable=1;deletable=1;editable=1;locked=0;connectable=1;container=0;" parent="1" vertex="1">
          <mxGeometry x="466.35999999999996" y="155.48000000000002" width="103.38" height="69.19000000000001" as="geometry" />
        </mxCell>
        <mxCell id="iztKYh4bMdh9Oh8WnDP4-20" value="obj" style="rounded=0;whiteSpace=wrap;html=1;shadow=0;movable=1;resizable=1;rotatable=1;deletable=1;editable=1;locked=0;connectable=1;container=0;" parent="1" vertex="1">
          <mxGeometry x="569.74" y="155.48000000000002" width="103.38" height="69.19000000000001" as="geometry" />
        </mxCell>
        <mxCell id="iztKYh4bMdh9Oh8WnDP4-21" value="obj" style="rounded=0;whiteSpace=wrap;html=1;shadow=0;movable=1;resizable=1;rotatable=1;deletable=1;editable=1;locked=0;connectable=1;container=0;" parent="1" vertex="1">
          <mxGeometry x="673.1199999999999" y="155.48000000000002" width="103.38" height="69.19000000000001" as="geometry" />
        </mxCell>
        <mxCell id="iztKYh4bMdh9Oh8WnDP4-45" style="edgeStyle=orthogonalEdgeStyle;rounded=0;orthogonalLoop=1;jettySize=auto;html=1;exitX=0.5;exitY=0;exitDx=0;exitDy=0;entryX=0.25;entryY=0;entryDx=0;entryDy=0;" parent="1" source="iztKYh4bMdh9Oh8WnDP4-43" target="iztKYh4bMdh9Oh8WnDP4-5" edge="1">
          <mxGeometry relative="1" as="geometry">
            <Array as="points">
              <mxPoint x="91.5" y="120" />
              <mxPoint x="147.5" y="120" />
            </Array>
          </mxGeometry>
        </mxCell>
        <mxCell id="iztKYh4bMdh9Oh8WnDP4-43" value="struct slab" style="rounded=0;whiteSpace=wrap;html=1;shadow=0;container=0;fillColor=#e1d5e7;strokeColor=#9673a6;" parent="1" vertex="1">
          <mxGeometry x="46.5" y="155.48000000000002" width="89.37" height="69.19" as="geometry" />
        </mxCell>
        <mxCell id="iztKYh4bMdh9Oh8WnDP4-46" value="freelist" style="text;html=1;align=center;verticalAlign=middle;resizable=0;points=[];autosize=1;strokeColor=none;fillColor=none;" parent="1" vertex="1">
          <mxGeometry x="42" y="125.48000000000002" width="60" height="30" as="geometry" />
        </mxCell>
        <mxCell id="iztKYh4bMdh9Oh8WnDP4-84" value="&lt;b&gt;&lt;font style=&quot;font-size: 16px;&quot;&gt;object freelist&lt;/font&gt;&lt;/b&gt;" style="text;html=1;align=center;verticalAlign=middle;resizable=0;points=[];autosize=1;strokeColor=none;fillColor=none;" parent="1" vertex="1">
          <mxGeometry x="179.5" y="70" width="130" height="30" as="geometry" />
        </mxCell>
        <mxCell id="iztKYh4bMdh9Oh8WnDP4-83" value="" style="rounded=0;labelBackgroundColor=none;fontFamily=宋体;fillColor=none;dashed=1;" parent="1" vertex="1">
          <mxGeometry x="106.5" y="100" width="280" height="150" as="geometry" />
        </mxCell>
      </root>
    </mxGraphModel>
  </diagram>
</mxfile>
